# xmcd CD database file generated by LOLA_Freedb v0.9beta0
# 
# Track frame offsets:
#      182
#      14515
#      24675
#      40667
#      50170
#      62357
#      79120
#      90317
#      106732
#      122095
#      134105
#      146795
#      160052
#      172507
#      183437
#      200950
#      213740
#      229510
# 
# Disc length: 3208 seconds
# 
# Revision: 0 
# Processed by: cddbd v1.5.2PL0 Copyright (c) Steve Scherf et al.
# Submitted via: LOLA_Freedb v0.9beta0
# 
DISCID=f70c8612
DTITLE=Ralf Paulsen - Ralf Paulsen Ein Herz schlägt westwärts
DYEAR=1900
DGENRE=
TTITLE0=Ralf Paulsen - Höllenfahrt nach Santa Fé
TTITLE1=Ralf Paulsen - Bonanza
TTITLE2=Ralf Paulsen - Sierra Madre Del Sur
TTITLE3=Ralf Paulsen - Tränen in deinen Augen
TTITLE4=Ralf Paulsen - Anja Anja
TTITLE5=Ralf Paulsen - High Noon - 12 uhr Mittags
TTITLE6=Ralf Paulsen - Oh My Darling Caroline
TTITLE7=Ralf Paulsen - Neu sind diie Namen
TTITLE8=Ralf Paulsen - Es hängt ein Pferdehalfter an der Wand
TTITLE9=Ralf Paulsen - Tom Dooley
TTITLE10=Ralf Paulsen - Kein Gold im Blue River
TTITLE11=Ralf Paulsen - Das alte Haus von von Rocky Docky
TTITLE12=Ralf Paulsen - Die Western von Gestern
TTITLE13=Ralf Paulsen - Geisterreiter
TTITLE14=Ralf Paulsen - Litle Joe Goodbye
TTITLE15=Ralf Paulsen - Kleine Annabell
TTITLE16=Ralf Paulsen - Königin der Nacht
TTITLE17=Ralf Paulsen - Jeder Tag geht zu Ende
EXTD=
EXTT0=
EXTT1=
EXTT2=
EXTT3=
EXTT4=
EXTT5=
EXTT6=
EXTT7=
EXTT8=
EXTT9=
EXTT10=
EXTT11=
EXTT12=
EXTT13=
EXTT14=
EXTT15=
EXTT16=
EXTT17=
PLAYORDER=
